# xmcd CD database file
#
# Track frame offsets:
#	150
#	14458
#	30092
#	50667
#	65494
#	86671
#	103591
#	125842
#	138688
#	161471
#	191381
#	205825
#	247649
#
# Disc length: 4330 seconds
#
# Revision: 0
# Processed by: cddbd v1.5.1PL2 Copyright (c) Steve Scherf et al.
# Submitted via: CDex 1.51
#
DISCID=aa10e80d
DTITLE=lostage - PLAY WITH ISOLATION
DYEAR=2006
DGENRE=ロック (一般)
TTITLE0=TELEVISION CITY
TTITLE1=人間ロボット
TTITLE2=INSIDE/OUTSIDE
TTITLE3=ROUTINE
TTITLE4=TOKAGE
TTITLE5=BUTTERFLY
TTITLE6=CHANNEL 11
TTITLE7=○か×か
TTITLE8=種蒔く人々
TTITLE9=2:50
TTITLE10=下がった体温
TTITLE11=町
TTITLE12=(CD Extra)
EXTD=YEAR: 2006
EXTT0=
EXTT1=
EXTT2=
EXTT3=
EXTT4=
EXTT5=
EXTT6=
EXTT7=
EXTT8=
EXTT9=
EXTT10=
EXTT11=
EXTT12=
PLAYORDER=
